<svg fill="none" height="24" viewBox="0 0 24 24" width="24" xmlns="http://www.w3.org/2000/svg" xmlns:xlink="http://www.w3.org/1999/xlink"><filter id="a" color-interpolation-filters="sRGB" filterUnits="userSpaceOnUse" height="24.0083" width="25.9983" x="-.5" y=".491699"><feFlood flood-opacity="0" result="BackgroundImageFix"/><feBlend in="SourceGraphic" in2="BackgroundImageFix" mode="normal" result="shape"/><feColorMatrix in="SourceAlpha" result="hardAlpha" type="matrix" values="0 0 0 0 0 0 0 0 0 0 0 0 0 0 0 0 0 0 127 0"/><feOffset/><feGaussianBlur stdDeviation=".25"/><feComposite in2="hardAlpha" k2="-1" k3="1" operator="arithmetic"/><feColorMatrix type="matrix" values="0 0 0 0 1 0 0 0 0 1 0 0 0 0 1 0 0 0 0.3 0"/><feBlend in2="shape" mode="normal" result="effect1_innerShadow_19_610"/><feColorMatrix in="SourceAlpha" result="hardAlpha" type="matrix" values="0 0 0 0 0 0 0 0 0 0 0 0 0 0 0 0 0 0 127 0"/><feOffset dx="-1" dy="1"/><feGaussianBlur stdDeviation="1"/><feComposite in2="hardAlpha" k2="-1" k3="1" operator="arithmetic"/><feColorMatrix type="matrix" values="0 0 0 0 1 0 0 0 0 1 0 0 0 0 1 0 0 0 0.25 0"/><feBlend in2="effect1_innerShadow_19_610" mode="normal" result="effect2_innerShadow_19_610"/><feColorMatrix in="SourceAlpha" result="hardAlpha" type="matrix" values="0 0 0 0 0 0 0 0 0 0 0 0 0 0 0 0 0 0 127 0"/><feOffset dx="2"/><feGaussianBlur stdDeviation="2"/><feComposite in2="hardAlpha" k2="-1" k3="1" operator="arithmetic"/><feColorMatrix type="matrix" values="0 0 0 0 0.220833 0 0 0 0 0.220833 0 0 0 0 0.220833 0 0 0 0.28 0"/><feBlend in2="effect2_innerShadow_19_610" mode="normal" result="effect3_innerShadow_19_610"/><feColorMatrix in="SourceAlpha" result="hardAlpha" type="matrix" values="0 0 0 0 0 0 0 0 0 0 0 0 0 0 0 0 0 0 127 0"/><feOffset dx="1" dy="1"/><feGaussianBlur stdDeviation="1.5"/><feComposite in2="hardAlpha" k2="-1" k3="1" operator="arithmetic"/><feColorMatrix type="matrix" values="0 0 0 0 0.2 0 0 0 0 0.199167 0 0 0 0 0.199217 0 0 0 0.1 0"/><feBlend in2="effect3_innerShadow_19_610" mode="normal" result="effect4_innerShadow_19_610"/></filter><pattern id="b" height=".712203" patternContentUnits="objectBoundingBox" width=".950079"/><clipPath id="c"><path d="m0 0h24v24h-24z"/></clipPath><g clip-path="url(#c)"><g filter="url(#a)" stroke-linecap="round" stroke-linejoin="round" stroke-width="3"><path d="m16 8.00004-14 13.99996m15.5-7h-8.5m11.24-2.76c1.1258-1.1258 1.7583-2.65278 1.7583-4.24496 0-1.59219-.6325-3.11916-1.7583-4.245-1.1258-1.12585-2.6528-1.75834-4.245-1.75834s-3.1192.63249-4.245 1.75834l-6.75 6.74996v8.5h8.5z" stroke="#000"/><path d="m16 8.00004-14 13.99996m15.5-7h-8.5m11.24-2.76c1.1258-1.1258 1.7583-2.65278 1.7583-4.24496 0-1.59219-.6325-3.11916-1.7583-4.245-1.1258-1.12585-2.6528-1.75834-4.245-1.75834s-3.1192.63249-4.245 1.75834l-6.75 6.74996v8.5h8.5z" stroke="url(#b)" stroke-opacity=".05"/></g></g></svg>