<?xml version="1.0" standalone="no"?>
<!DOCTYPE svg PUBLIC "-//W3C//DTD SVG 20010904//EN"
 "http://www.w3.org/TR/2001/REC-SVG-20010904/DTD/svg10.dtd">
<svg version="1.0" xmlns="http://www.w3.org/2000/svg"
 width="284.000000pt" height="194.000000pt" viewBox="0 0 284.000000 194.000000"
 preserveAspectRatio="xMidYMid meet">
<metadata>
Created by potrace 1.10, written by Peter Selinger 2001-2011
</metadata>
<g transform="translate(0.000000,194.000000) scale(0.100000,-0.100000)"
fill="#000000" stroke="none">
<path d="M1300 1205 c0 -272 -2 -495 -5 -495 -3 0 -166 142 -362 315 -196 173
-361 315 -367 314 -6 0 -49 -44 -95 -96 -81 -94 -83 -97 -63 -112 45 -35 641
-565 638 -568 -1 -1 -174 -3 -384 -3 l-382 -1 0 -134 0 -135 1135 0 1135 0 0
135 0 135 -362 2 -361 3 326 288 c180 159 327 292 327 296 0 10 -161 191 -171
191 -4 0 -171 -144 -371 -320 l-363 -321 -3 501 -2 500 -135 0 -135 0 0 -495z"/>
</g>
</svg>
